<svg width="435" height="155" viewBox="0 0 435 155" fill="none" xmlns="http://www.w3.org/2000/svg">
<path d="M10.5043 98.4545V23.4545H27.6918V32.794H28.2244C28.9347 31.1368 29.9408 29.5388 31.2429 28C32.5687 26.4612 34.2495 25.2064 36.2855 24.2358C38.3452 23.2415 40.8073 22.7443 43.6719 22.7443C47.4598 22.7443 50.9991 23.7386 54.2898 25.7273C57.6042 27.7159 60.2794 30.7817 62.3153 34.9247C64.3513 39.0677 65.3693 44.3471 65.3693 50.7628C65.3693 56.9418 64.3868 62.1146 62.4219 66.2812C60.4806 70.4479 57.8527 73.5729 54.5384 75.6562C51.2476 77.7396 47.59 78.7812 43.5653 78.7812C40.8191 78.7812 38.4399 78.3314 36.4276 77.4318C34.4152 76.5322 32.7225 75.3485 31.3494 73.8807C30 72.4129 28.9583 70.8385 28.2244 69.1577H27.8693V98.4545H10.5043ZM27.5142 50.7273C27.5142 53.6629 27.9048 56.2197 28.6861 58.3977C29.491 60.5758 30.6392 62.2685 32.1307 63.4759C33.6458 64.6596 35.4569 65.2514 37.5639 65.2514C39.6946 65.2514 41.5057 64.6596 42.9972 63.4759C44.4886 62.2685 45.6132 60.5758 46.3707 58.3977C47.152 56.2197 47.5426 53.6629 47.5426 50.7273C47.5426 47.7917 47.152 45.2467 46.3707 43.0923C45.6132 40.938 44.4886 39.2689 42.9972 38.0852C41.5294 36.9015 39.7183 36.3097 37.5639 36.3097C35.4332 36.3097 33.6222 36.8897 32.1307 38.0497C30.6392 39.2098 29.491 40.867 28.6861 43.0213C27.9048 45.1757 27.5142 47.7443 27.5142 50.7273ZM77.8455 78.9233C74.3654 78.9233 71.2759 78.3433 68.5771 77.1832C65.9019 75.9995 63.783 74.224 62.2205 71.8565C60.6817 69.4654 59.9123 66.4706 59.9123 62.8722C59.9123 59.8419 60.445 57.285 61.5103 55.2017C62.5756 53.1184 64.0434 51.4257 65.9137 50.1236C67.784 48.8215 69.9383 47.839 72.3768 47.1761C74.8152 46.4896 77.4194 46.0279 80.1893 45.7912C83.2906 45.5071 85.7882 45.2112 87.6822 44.9034C89.5761 44.572 90.9492 44.1103 91.8015 43.5185C92.6774 42.9029 93.1154 42.0388 93.1154 40.9261V40.7486C93.1154 38.9257 92.488 37.517 91.2333 36.5227C89.9786 35.5284 88.2859 35.0312 86.1552 35.0312C83.8588 35.0312 82.0122 35.5284 80.6154 36.5227C79.2186 37.517 78.3308 38.8902 77.9521 40.642L61.9364 40.0739C62.4099 36.7595 63.6291 33.8002 65.5941 31.196C67.5827 28.5682 70.3053 26.5085 73.7617 25.017C77.2418 23.5019 81.4203 22.7443 86.2972 22.7443C89.7773 22.7443 92.9852 23.1586 95.9208 23.9872C98.8564 24.7921 101.413 25.9759 103.591 27.5384C105.769 29.0772 107.45 30.9711 108.634 33.2202C109.841 35.4692 110.445 38.0379 110.445 40.9261V78H94.1097V70.4006H93.6836C92.7129 72.2472 91.4701 73.8097 89.9549 75.0881C88.4634 76.3665 86.6997 77.3253 84.6637 77.9645C82.6514 78.6037 80.3787 78.9233 77.8455 78.9233ZM83.2077 67.5597C85.078 67.5597 86.7589 67.1809 88.2504 66.4233C89.7655 65.6657 90.9729 64.6241 91.8725 63.2983C92.7721 61.9489 93.2219 60.3864 93.2219 58.6108V53.4261C92.7248 53.6866 92.1211 53.9233 91.4109 54.1364C90.7243 54.3494 89.9667 54.5507 89.1381 54.7401C88.3095 54.9295 87.4573 55.0952 86.5813 55.2372C85.7054 55.3793 84.8649 55.5095 84.06 55.6278C82.4265 55.8883 81.0297 56.2907 79.8697 56.8352C78.7333 57.3797 77.8574 58.09 77.2418 58.9659C76.65 59.8182 76.354 60.8362 76.354 62.0199C76.354 63.8191 76.9933 65.1922 78.2717 66.1392C79.5737 67.0862 81.2191 67.5597 83.2077 67.5597ZM139.851 23.4545V36.2386H105.441V23.4545H139.851ZM112.65 10.3864H130.015V60.848C130.015 61.9134 130.18 62.7775 130.512 63.4403C130.867 64.0795 131.376 64.5412 132.039 64.8253C132.702 65.0857 133.495 65.2159 134.418 65.2159C135.081 65.2159 135.779 65.1567 136.513 65.0384C137.271 64.8963 137.839 64.7779 138.218 64.6832L140.846 77.2188C140.017 77.4555 138.845 77.7514 137.33 78.1065C135.838 78.4616 134.051 78.6866 131.968 78.7812C127.896 78.9706 124.404 78.4972 121.492 77.3608C118.604 76.2008 116.39 74.4015 114.851 71.9631C113.336 69.5246 112.602 66.4588 112.65 62.7656V10.3864ZM136.711 78V23.4545H153.579V33.3977H154.147C155.142 29.7992 156.763 27.1241 159.012 25.3722C161.261 23.5966 163.877 22.7088 166.86 22.7088C167.665 22.7088 168.494 22.768 169.346 22.8864C170.199 22.9811 170.992 23.1349 171.725 23.348V38.4403C170.897 38.1562 169.808 37.9313 168.458 37.7656C167.133 37.5999 165.949 37.517 164.907 37.517C162.848 37.517 160.989 37.9787 159.332 38.902C157.699 39.8016 156.408 41.0682 155.461 42.7017C154.538 44.3116 154.076 46.2055 154.076 48.3835V78H136.711ZM166.801 78V23.4545H184.166V78H166.801ZM175.501 17.098C173.063 17.098 170.968 16.2931 169.216 14.6832C167.464 13.0497 166.588 11.0848 166.588 8.78835C166.588 6.51562 167.464 4.57433 169.216 2.96449C170.968 1.33096 173.063 0.5142 175.501 0.5142C177.964 0.5142 180.059 1.33096 181.787 2.96449C183.539 4.57433 184.415 6.51562 184.415 8.78835C184.415 11.0848 183.539 13.0497 181.787 14.6832C180.059 16.2931 177.964 17.098 175.501 17.098ZM208.681 79.0298C202.928 79.0298 197.992 77.8461 193.873 75.4787C189.777 73.1113 186.628 69.8205 184.426 65.6065C182.225 61.3688 181.124 56.4683 181.124 50.9048C181.124 45.3177 182.225 40.4171 184.426 36.2031C186.652 31.9654 189.812 28.6629 193.908 26.2955C198.027 23.928 202.94 22.7443 208.645 22.7443C213.688 22.7443 218.079 23.6558 221.82 25.4787C225.584 27.3016 228.52 29.8821 230.627 33.2202C232.757 36.5346 233.882 40.429 234 44.9034H217.772C217.44 42.1098 216.493 39.92 214.931 38.3338C213.392 36.7476 211.38 35.9545 208.894 35.9545C206.882 35.9545 205.118 36.5227 203.603 37.6591C202.087 38.7718 200.904 40.429 200.051 42.6307C199.223 44.8087 198.809 47.5076 198.809 50.7273C198.809 53.947 199.223 56.6695 200.051 58.8949C200.904 61.0966 202.087 62.7656 203.603 63.902C205.118 65.0147 206.882 65.571 208.894 65.571C210.504 65.571 211.924 65.2277 213.155 64.5412C214.41 63.8546 215.44 62.8485 216.245 61.5227C217.05 60.1733 217.559 58.5398 217.772 56.6222H234C233.835 61.1203 232.71 65.0502 230.627 68.4119C228.567 71.7737 225.667 74.3897 221.926 76.2599C218.21 78.1065 213.794 79.0298 208.681 79.0298ZM246.548 63.6889L246.619 42.9858H249.033L264.374 23.4545H284.048L261.249 51.4375H256.668L246.548 63.6889ZM230.887 78V5.27273H248.252V78H230.887ZM264.765 78L250.489 55.3438L261.924 43.0213L284.829 78H264.765Z" fill="black"/>
<path d="M38.2926 98.4545V111.239H3.8821V98.4545H38.2926ZM11.0909 85.3864H28.456V135.848C28.456 136.913 28.6217 137.777 28.9531 138.44C29.3082 139.08 29.8172 139.541 30.4801 139.825C31.143 140.086 31.9361 140.216 32.8594 140.216C33.5223 140.216 34.2206 140.157 34.9545 140.038C35.7121 139.896 36.2803 139.778 36.6591 139.683L39.2869 152.219C38.4583 152.455 37.2865 152.751 35.7713 153.107C34.2798 153.462 32.4924 153.687 30.4091 153.781C26.3371 153.971 22.8452 153.497 19.9332 152.361C17.045 151.201 14.8314 149.402 13.2926 146.963C11.7775 144.525 11.0436 141.459 11.0909 137.766V85.3864ZM53.6896 121.892V153H36.3246V80.2727H53.1214V108.469H53.7251C54.9562 105.107 56.9685 102.479 59.7621 100.585C62.5793 98.6913 66.0239 97.7443 70.0959 97.7443C73.9311 97.7443 77.2692 98.5966 80.1101 100.301C82.951 101.982 85.1527 104.361 86.7152 107.439C88.3014 110.517 89.0826 114.115 89.0589 118.234V153H71.6939V121.643C71.7176 118.613 70.96 116.246 69.4212 114.541C67.8823 112.837 65.7161 111.984 62.9226 111.984C61.0997 111.984 59.4898 112.387 58.093 113.192C56.7199 113.973 55.6428 115.098 54.8615 116.565C54.1039 118.033 53.7133 119.809 53.6896 121.892ZM113.396 154.03C107.69 154.03 102.766 152.905 98.6232 150.656C94.5039 148.384 91.3316 145.152 89.1062 140.962C86.9045 136.748 85.8036 131.741 85.8036 125.94C85.8036 120.306 86.9163 115.382 89.1417 111.168C91.3671 106.93 94.5039 103.639 98.5522 101.295C102.6 98.928 107.371 97.7443 112.863 97.7443C116.746 97.7443 120.297 98.348 123.517 99.5554C126.736 100.763 129.518 102.55 131.862 104.918C134.206 107.285 136.029 110.209 137.331 113.689C138.633 117.145 139.284 121.111 139.284 125.585V129.918H91.8761V119.832H123.126C123.102 117.986 122.664 116.34 121.812 114.896C120.96 113.452 119.788 112.328 118.297 111.523C116.829 110.694 115.136 110.28 113.218 110.28C111.277 110.28 109.537 110.718 107.998 111.594C106.459 112.446 105.24 113.618 104.341 115.109C103.441 116.577 102.967 118.246 102.92 120.116V130.379C102.92 132.605 103.358 134.558 104.234 136.239C105.11 137.896 106.353 139.186 107.963 140.109C109.573 141.033 111.49 141.494 113.716 141.494C115.254 141.494 116.651 141.281 117.906 140.855C119.161 140.429 120.238 139.802 121.137 138.973C122.037 138.144 122.712 137.126 123.162 135.919L139.106 136.381C138.443 139.955 136.987 143.069 134.738 145.72C132.513 148.348 129.589 150.396 125.967 151.864C122.345 153.308 118.154 154.03 113.396 154.03ZM161.614 154.03C155.885 154.03 150.961 152.858 146.842 150.514C142.746 148.147 139.585 144.856 137.36 140.642C135.158 136.404 134.058 131.492 134.058 125.905C134.058 120.294 135.158 115.382 137.36 111.168C139.585 106.93 142.746 103.639 146.842 101.295C150.961 98.928 155.885 97.7443 161.614 97.7443C167.344 97.7443 172.256 98.928 176.352 101.295C180.471 103.639 183.631 106.93 185.833 111.168C188.058 115.382 189.171 120.294 189.171 125.905C189.171 131.492 188.058 136.404 185.833 140.642C183.631 144.856 180.471 148.147 176.352 150.514C172.256 152.858 167.344 154.03 161.614 154.03ZM161.721 140.926C163.804 140.926 165.568 140.287 167.012 139.009C168.456 137.73 169.557 135.955 170.315 133.682C171.096 131.409 171.487 128.781 171.487 125.798C171.487 122.768 171.096 120.116 170.315 117.844C169.557 115.571 168.456 113.795 167.012 112.517C165.568 111.239 163.804 110.599 161.721 110.599C159.567 110.599 157.744 111.239 156.252 112.517C154.784 113.795 153.66 115.571 152.879 117.844C152.121 120.116 151.742 122.768 151.742 125.798C151.742 128.781 152.121 131.409 152.879 133.682C153.66 135.955 154.784 137.73 156.252 139.009C157.744 140.287 159.567 140.926 161.721 140.926ZM205.989 153.781C201.964 153.781 198.306 152.74 195.016 150.656C191.725 148.573 189.097 145.448 187.132 141.281C185.167 137.115 184.185 131.942 184.185 125.763C184.185 119.347 185.203 114.068 187.239 109.925C189.275 105.782 191.938 102.716 195.229 100.727C198.543 98.7386 202.106 97.7443 205.918 97.7443C208.782 97.7443 211.232 98.2415 213.268 99.2358C215.304 100.206 216.985 101.461 218.311 103C219.637 104.539 220.643 106.137 221.33 107.794H221.685V80.2727H239.05V153H221.862V144.158H221.33C220.596 145.839 219.554 147.413 218.205 148.881C216.855 150.348 215.162 151.532 213.126 152.432C211.114 153.331 208.735 153.781 205.989 153.781ZM212.026 140.251C214.133 140.251 215.932 139.66 217.423 138.476C218.915 137.268 220.063 135.576 220.868 133.398C221.673 131.22 222.075 128.663 222.075 125.727C222.075 122.744 221.673 120.176 220.868 118.021C220.087 115.867 218.938 114.21 217.423 113.05C215.932 111.89 214.133 111.31 212.026 111.31C209.871 111.31 208.048 111.902 206.557 113.085C205.065 114.269 203.929 115.938 203.148 118.092C202.39 120.247 202.011 122.792 202.011 125.727C202.011 128.663 202.402 131.22 203.183 133.398C203.964 135.576 205.089 137.268 206.557 138.476C208.048 139.66 209.871 140.251 212.026 140.251ZM263.493 154.03C257.764 154.03 252.84 152.858 248.721 150.514C244.625 148.147 241.464 144.856 239.239 140.642C237.037 136.404 235.936 131.492 235.936 125.905C235.936 120.294 237.037 115.382 239.239 111.168C241.464 106.93 244.625 103.639 248.721 101.295C252.84 98.928 257.764 97.7443 263.493 97.7443C269.222 97.7443 274.135 98.928 278.23 101.295C282.35 103.639 285.51 106.93 287.712 111.168C289.937 115.382 291.05 120.294 291.05 125.905C291.05 131.492 289.937 136.404 287.712 140.642C285.51 144.856 282.35 148.147 278.23 150.514C274.135 152.858 269.222 154.03 263.493 154.03ZM263.6 140.926C265.683 140.926 267.447 140.287 268.891 139.009C270.335 137.73 271.436 135.955 272.194 133.682C272.975 131.409 273.365 128.781 273.365 125.798C273.365 122.768 272.975 120.116 272.194 117.844C271.436 115.571 270.335 113.795 268.891 112.517C267.447 111.239 265.683 110.599 263.6 110.599C261.445 110.599 259.623 111.239 258.131 112.517C256.663 113.795 255.539 115.571 254.757 117.844C254 120.116 253.621 122.768 253.621 125.798C253.621 128.781 254 131.409 254.757 133.682C255.539 135.955 256.663 137.73 258.131 139.009C259.623 140.287 261.445 140.926 263.6 140.926ZM287.946 153V98.4545H304.814V108.398H305.382C306.376 104.799 307.998 102.124 310.247 100.372C312.496 98.5966 315.112 97.7088 318.095 97.7088C318.9 97.7088 319.728 97.768 320.581 97.8864C321.433 97.9811 322.226 98.1349 322.96 98.348V113.44C322.131 113.156 321.042 112.931 319.693 112.766C318.367 112.6 317.183 112.517 316.142 112.517C314.082 112.517 312.224 112.979 310.566 113.902C308.933 114.802 307.643 116.068 306.696 117.702C305.772 119.312 305.311 121.205 305.311 123.384V153H287.946ZM340.701 154.03C334.995 154.03 330.071 152.905 325.928 150.656C321.809 148.384 318.636 145.152 316.411 140.962C314.209 136.748 313.108 131.741 313.108 125.94C313.108 120.306 314.221 115.382 316.446 111.168C318.672 106.93 321.809 103.639 325.857 101.295C329.905 98.928 334.676 97.7443 340.168 97.7443C344.051 97.7443 347.602 98.348 350.821 99.5554C354.041 100.763 356.823 102.55 359.167 104.918C361.51 107.285 363.333 110.209 364.635 113.689C365.937 117.145 366.588 121.111 366.588 125.585V129.918H319.181V119.832H350.431C350.407 117.986 349.969 116.34 349.117 114.896C348.265 113.452 347.093 112.328 345.601 111.523C344.133 110.694 342.441 110.28 340.523 110.28C338.582 110.28 336.842 110.718 335.303 111.594C333.764 112.446 332.545 113.618 331.645 115.109C330.746 116.577 330.272 118.246 330.225 120.116V130.379C330.225 132.605 330.663 134.558 331.539 136.239C332.415 137.896 333.658 139.186 335.267 140.109C336.877 141.033 338.795 141.494 341.02 141.494C342.559 141.494 343.956 141.281 345.211 140.855C346.465 140.429 347.542 139.802 348.442 138.973C349.342 138.144 350.016 137.126 350.466 135.919L366.411 136.381C365.748 139.955 364.292 143.069 362.043 145.72C359.818 148.348 356.894 150.396 353.272 151.864C349.65 153.308 345.459 154.03 340.701 154.03Z" fill="black"/>
<path d="M28.5 100L28.5 68.5" stroke="black" stroke-width="2"/>
</svg>
